<?xml version="1.0" encoding="UTF-8" standalone="no"?>
<!DOCTYPE svg PUBLIC "-//W3C//DTD SVG 1.1//EN"
 "http://www.w3.org/Graphics/SVG/1.1/DTD/svg11.dtd">
<!-- Generated by graphviz version 3.0.0 (20220226.1711)
 -->
<!-- Title: dependencies Pages: 1 -->
<svg width="2224pt" height="247pt"
 viewBox="0.00 0.00 2224.00 246.80" xmlns="http://www.w3.org/2000/svg" xmlns:xlink="http://www.w3.org/1999/xlink">
<g id="graph0" class="graph" transform="scale(1 1) rotate(0) translate(4 242.8)">
<title>dependencies</title>
<polygon fill="white" stroke="transparent" points="-4,4 -4,-242.8 2220,-242.8 2220,4 -4,4"/>
<text text-anchor="middle" x="1108" y="-8.2" font-family="sans-serif" font-size="14.00">dependencies</text>
<g id="clust1" class="cluster">
<title>cluster_AppModule</title>
<polygon fill="none" stroke="black" stroke-dasharray="1,5" points="8,-32.8 8,-230.8 2208,-230.8 2208,-32.8 8,-32.8"/>
</g>
<g id="clust16" class="cluster">
<title>cluster_AppModule_imports</title>
<polygon fill="none" stroke="black" points="2056,-40.8 2056,-92.8 2200,-92.8 2200,-40.8 2056,-40.8"/>
</g>
<g id="clust18" class="cluster">
<title>cluster_AppModule_bootstrap</title>
<polygon fill="none" stroke="black" points="1043,-170.8 1043,-222.8 1167,-222.8 1167,-170.8 1043,-170.8"/>
</g>
<g id="clust2" class="cluster">
<title>cluster_AppModule_declarations</title>
<polygon fill="none" stroke="black" points="16,-40.8 16,-92.8 2048,-92.8 2048,-40.8 16,-40.8"/>
</g>
<!-- AddTutorialComponent -->
<g id="node1" class="node">
<title>AddTutorialComponent</title>
<polygon fill="#ffffb3" stroke="black" points="2040.04,-84.8 1889.96,-84.8 1889.96,-48.8 2040.04,-48.8 2040.04,-84.8"/>
<text text-anchor="middle" x="1965" y="-62.6" font-family="Times,serif" font-size="14.00">AddTutorialComponent</text>
</g>
<!-- AppModule -->
<g id="node14" class="node">
<title>AppModule</title>
<polygon fill="#8dd3c7" stroke="black" points="1146.66,-149.8 1143.66,-153.8 1122.66,-153.8 1119.66,-149.8 1063.34,-149.8 1063.34,-113.8 1146.66,-113.8 1146.66,-149.8"/>
<text text-anchor="middle" x="1105" y="-127.6" font-family="Times,serif" font-size="14.00">AppModule</text>
</g>
<!-- AddTutorialComponent&#45;&gt;AppModule -->
<g id="edge1" class="edge">
<title>AddTutorialComponent&#45;&gt;AppModule</title>
<path fill="none" stroke="black" d="M1965,-84.84C1965,-106.46 1965,-139.8 1965,-139.8 1965,-139.8 1156.77,-139.8 1156.77,-139.8"/>
<polygon fill="black" stroke="black" points="1156.77,-136.3 1146.77,-139.8 1156.77,-143.3 1156.77,-136.3"/>
</g>
<!-- AddUserComponent -->
<g id="node2" class="node">
<title>AddUserComponent</title>
<polygon fill="#ffffb3" stroke="black" points="1871.88,-84.8 1740.12,-84.8 1740.12,-48.8 1871.88,-48.8 1871.88,-84.8"/>
<text text-anchor="middle" x="1806" y="-62.6" font-family="Times,serif" font-size="14.00">AddUserComponent</text>
</g>
<!-- AddUserComponent&#45;&gt;AppModule -->
<g id="edge2" class="edge">
<title>AddUserComponent&#45;&gt;AppModule</title>
<path fill="none" stroke="black" d="M1806,-85.02C1806,-105.17 1806,-134.8 1806,-134.8 1806,-134.8 1156.75,-134.8 1156.75,-134.8"/>
<polygon fill="black" stroke="black" points="1156.75,-131.3 1146.75,-134.8 1156.75,-138.3 1156.75,-131.3"/>
</g>
<!-- AdministrationComponent -->
<g id="node3" class="node">
<title>AdministrationComponent</title>
<polygon fill="#ffffb3" stroke="black" points="1722.1,-84.8 1555.9,-84.8 1555.9,-48.8 1722.1,-48.8 1722.1,-84.8"/>
<text text-anchor="middle" x="1639" y="-62.6" font-family="Times,serif" font-size="14.00">AdministrationComponent</text>
</g>
<!-- AdministrationComponent&#45;&gt;AppModule -->
<g id="edge3" class="edge">
<title>AdministrationComponent&#45;&gt;AppModule</title>
<path fill="none" stroke="black" d="M1639,-85.02C1639,-103.63 1639,-129.8 1639,-129.8 1639,-129.8 1156.9,-129.8 1156.9,-129.8"/>
<polygon fill="black" stroke="black" points="1156.9,-126.3 1146.9,-129.8 1156.9,-133.3 1156.9,-126.3"/>
</g>
<!-- AppComponent -->
<g id="node4" class="node">
<title>AppComponent</title>
<polygon fill="#ffffb3" stroke="black" points="1537.94,-84.8 1432.06,-84.8 1432.06,-48.8 1537.94,-48.8 1537.94,-84.8"/>
<text text-anchor="middle" x="1485" y="-62.6" font-family="Times,serif" font-size="14.00">AppComponent</text>
</g>
<!-- AppComponent&#45;&gt;AppModule -->
<g id="edge4" class="edge">
<title>AppComponent&#45;&gt;AppModule</title>
<path fill="none" stroke="black" d="M1485,-84.83C1485,-101.86 1485,-124.8 1485,-124.8 1485,-124.8 1156.75,-124.8 1156.75,-124.8"/>
<polygon fill="black" stroke="black" points="1156.75,-121.3 1146.75,-124.8 1156.75,-128.3 1156.75,-121.3"/>
</g>
<!-- ContactFormComponent -->
<g id="node5" class="node">
<title>ContactFormComponent</title>
<polygon fill="#ffffb3" stroke="black" points="1414.71,-84.8 1259.29,-84.8 1259.29,-48.8 1414.71,-48.8 1414.71,-84.8"/>
<text text-anchor="middle" x="1337" y="-62.6" font-family="Times,serif" font-size="14.00">ContactFormComponent</text>
</g>
<!-- ContactFormComponent&#45;&gt;AppModule -->
<g id="edge5" class="edge">
<title>ContactFormComponent&#45;&gt;AppModule</title>
<path fill="none" stroke="black" d="M1337,-85.04C1337,-100.37 1337,-119.8 1337,-119.8 1337,-119.8 1156.74,-119.8 1156.74,-119.8"/>
<polygon fill="black" stroke="black" points="1156.74,-116.3 1146.74,-119.8 1156.74,-123.3 1156.74,-116.3"/>
</g>
<!-- DoTestComponent -->
<g id="node6" class="node">
<title>DoTestComponent</title>
<polygon fill="#ffffb3" stroke="black" points="1241.05,-84.8 1118.95,-84.8 1118.95,-48.8 1241.05,-48.8 1241.05,-84.8"/>
<text text-anchor="middle" x="1180" y="-62.6" font-family="Times,serif" font-size="14.00">DoTestComponent</text>
</g>
<!-- DoTestComponent&#45;&gt;AppModule -->
<g id="edge6" class="edge">
<title>DoTestComponent&#45;&gt;AppModule</title>
<path fill="none" stroke="black" d="M1132.78,-84.91C1132.78,-84.91 1132.78,-103.79 1132.78,-103.79"/>
<polygon fill="black" stroke="black" points="1129.28,-103.79 1132.78,-113.79 1136.28,-103.79 1129.28,-103.79"/>
</g>
<!-- ExamenesComponent -->
<g id="node7" class="node">
<title>ExamenesComponent</title>
<polygon fill="#ffffb3" stroke="black" points="1100.36,-84.8 961.64,-84.8 961.64,-48.8 1100.36,-48.8 1100.36,-84.8"/>
<text text-anchor="middle" x="1031" y="-62.6" font-family="Times,serif" font-size="14.00">ExamenesComponent</text>
</g>
<!-- ExamenesComponent&#45;&gt;AppModule -->
<g id="edge7" class="edge">
<title>ExamenesComponent&#45;&gt;AppModule</title>
<path fill="none" stroke="black" d="M1081.8,-84.91C1081.8,-84.91 1081.8,-103.79 1081.8,-103.79"/>
<polygon fill="black" stroke="black" points="1078.3,-103.79 1081.8,-113.79 1085.3,-103.79 1078.3,-103.79"/>
</g>
<!-- LoginComponent -->
<g id="node8" class="node">
<title>LoginComponent</title>
<polygon fill="#ffffb3" stroke="black" points="943.27,-84.8 828.73,-84.8 828.73,-48.8 943.27,-48.8 943.27,-84.8"/>
<text text-anchor="middle" x="886" y="-62.6" font-family="Times,serif" font-size="14.00">LoginComponent</text>
</g>
<!-- LoginComponent&#45;&gt;AppModule -->
<g id="edge8" class="edge">
<title>LoginComponent&#45;&gt;AppModule</title>
<path fill="none" stroke="black" d="M886,-85.04C886,-100.37 886,-119.8 886,-119.8 886,-119.8 1053.29,-119.8 1053.29,-119.8"/>
<polygon fill="black" stroke="black" points="1053.29,-123.3 1063.29,-119.8 1053.29,-116.3 1053.29,-123.3"/>
</g>
<!-- PerfilComponent -->
<g id="node9" class="node">
<title>PerfilComponent</title>
<polygon fill="#ffffb3" stroke="black" points="810.44,-84.8 697.56,-84.8 697.56,-48.8 810.44,-48.8 810.44,-84.8"/>
<text text-anchor="middle" x="754" y="-62.6" font-family="Times,serif" font-size="14.00">PerfilComponent</text>
</g>
<!-- PerfilComponent&#45;&gt;AppModule -->
<g id="edge9" class="edge">
<title>PerfilComponent&#45;&gt;AppModule</title>
<path fill="none" stroke="black" d="M754,-84.83C754,-101.86 754,-124.8 754,-124.8 754,-124.8 1053.01,-124.8 1053.01,-124.8"/>
<polygon fill="black" stroke="black" points="1053.01,-128.3 1063.01,-124.8 1053.01,-121.3 1053.01,-128.3"/>
</g>
<!-- TutorialDetailsComponent -->
<g id="node10" class="node">
<title>TutorialDetailsComponent</title>
<polygon fill="#ffffb3" stroke="black" points="680.08,-84.8 513.92,-84.8 513.92,-48.8 680.08,-48.8 680.08,-84.8"/>
<text text-anchor="middle" x="597" y="-62.6" font-family="Times,serif" font-size="14.00">TutorialDetailsComponent</text>
</g>
<!-- TutorialDetailsComponent&#45;&gt;AppModule -->
<g id="edge10" class="edge">
<title>TutorialDetailsComponent&#45;&gt;AppModule</title>
<path fill="none" stroke="black" d="M597,-85.02C597,-103.63 597,-129.8 597,-129.8 597,-129.8 1053,-129.8 1053,-129.8"/>
<polygon fill="black" stroke="black" points="1053,-133.3 1063,-129.8 1053,-126.3 1053,-133.3"/>
</g>
<!-- TutorialsListComponent -->
<g id="node11" class="node">
<title>TutorialsListComponent</title>
<polygon fill="#ffffb3" stroke="black" points="495.66,-84.8 342.34,-84.8 342.34,-48.8 495.66,-48.8 495.66,-84.8"/>
<text text-anchor="middle" x="419" y="-62.6" font-family="Times,serif" font-size="14.00">TutorialsListComponent</text>
</g>
<!-- TutorialsListComponent&#45;&gt;AppModule -->
<g id="edge11" class="edge">
<title>TutorialsListComponent&#45;&gt;AppModule</title>
<path fill="none" stroke="black" d="M419,-85.02C419,-105.17 419,-134.8 419,-134.8 419,-134.8 1053.12,-134.8 1053.12,-134.8"/>
<polygon fill="black" stroke="black" points="1053.12,-138.3 1063.12,-134.8 1053.12,-131.3 1053.12,-138.3"/>
</g>
<!-- UserDetailsComponent -->
<g id="node12" class="node">
<title>UserDetailsComponent</title>
<polygon fill="#ffffb3" stroke="black" points="323.92,-84.8 176.08,-84.8 176.08,-48.8 323.92,-48.8 323.92,-84.8"/>
<text text-anchor="middle" x="250" y="-62.6" font-family="Times,serif" font-size="14.00">UserDetailsComponent</text>
</g>
<!-- UserDetailsComponent&#45;&gt;AppModule -->
<g id="edge12" class="edge">
<title>UserDetailsComponent&#45;&gt;AppModule</title>
<path fill="none" stroke="black" d="M250,-84.84C250,-106.46 250,-139.8 250,-139.8 250,-139.8 1053.18,-139.8 1053.18,-139.8"/>
<polygon fill="black" stroke="black" points="1053.18,-143.3 1063.18,-139.8 1053.18,-136.3 1053.18,-143.3"/>
</g>
<!-- UsersListComponent -->
<g id="node13" class="node">
<title>UsersListComponent</title>
<polygon fill="#ffffb3" stroke="black" points="158.49,-84.8 23.51,-84.8 23.51,-48.8 158.49,-48.8 158.49,-84.8"/>
<text text-anchor="middle" x="91" y="-62.6" font-family="Times,serif" font-size="14.00">UsersListComponent</text>
</g>
<!-- UsersListComponent&#45;&gt;AppModule -->
<g id="edge13" class="edge">
<title>UsersListComponent&#45;&gt;AppModule</title>
<path fill="none" stroke="black" d="M91,-84.89C91,-107.93 91,-144.8 91,-144.8 91,-144.8 1053.04,-144.8 1053.04,-144.8"/>
<polygon fill="black" stroke="black" points="1053.04,-148.3 1063.04,-144.8 1053.04,-141.3 1053.04,-148.3"/>
</g>
<!-- AppComponent  -->
<g id="node16" class="node">
<title>AppComponent </title>
<polygon fill="#80b1d3" stroke="black" points="1159.44,-214.8 1050.56,-214.8 1050.56,-178.8 1159.44,-178.8 1159.44,-214.8"/>
<text text-anchor="middle" x="1105" y="-192.6" font-family="Times,serif" font-size="14.00">AppComponent </text>
</g>
<!-- AppModule&#45;&gt;AppComponent  -->
<g id="edge15" class="edge">
<title>AppModule&#45;&gt;AppComponent </title>
<path fill="none" stroke="black" stroke-dasharray="1,5" d="M1105,-149.91C1105,-149.91 1105,-168.79 1105,-168.79"/>
<polygon fill="black" stroke="black" points="1101.5,-168.79 1105,-178.79 1108.5,-168.79 1101.5,-168.79"/>
</g>
<!-- AppRoutingModule -->
<g id="node15" class="node">
<title>AppRoutingModule</title>
<polygon fill="#8dd3c7" stroke="black" points="2192.28,-84.8 2189.28,-88.8 2168.28,-88.8 2165.28,-84.8 2063.72,-84.8 2063.72,-48.8 2192.28,-48.8 2192.28,-84.8"/>
<text text-anchor="middle" x="2128" y="-62.6" font-family="Times,serif" font-size="14.00">AppRoutingModule</text>
</g>
<!-- AppRoutingModule&#45;&gt;AppModule -->
<g id="edge14" class="edge">
<title>AppRoutingModule&#45;&gt;AppModule</title>
<path fill="none" stroke="black" d="M2128,-84.89C2128,-107.93 2128,-144.8 2128,-144.8 2128,-144.8 1156.69,-144.8 1156.69,-144.8"/>
<polygon fill="black" stroke="black" points="1156.69,-141.3 1146.69,-144.8 1156.69,-148.3 1156.69,-141.3"/>
</g>
</g>
</svg>
