<?xml version="1.0" encoding="UTF-8" standalone="no"?>
<!DOCTYPE svg PUBLIC "-//W3C//DTD SVG 1.1//EN"
 "http://www.w3.org/Graphics/SVG/1.1/DTD/svg11.dtd">
<!-- Generated by graphviz version 3.0.0 (20220226.1711)
 -->
<!-- Title: dependencies Pages: 1 -->
<svg width="1619pt" height="247pt"
 viewBox="0.00 0.00 1619.00 246.80" xmlns="http://www.w3.org/2000/svg" xmlns:xlink="http://www.w3.org/1999/xlink">
<g id="graph0" class="graph" transform="scale(1 1) rotate(0) translate(4 242.8)">
<title>dependencies</title>
<polygon fill="white" stroke="transparent" points="-4,4 -4,-242.8 1615,-242.8 1615,4 -4,4"/>
<text text-anchor="middle" x="805.5" y="-8.2" font-family="sans-serif" font-size="14.00">dependencies</text>
<g id="clust1" class="cluster">
<title>cluster_AppModule</title>
<polygon fill="none" stroke="black" stroke-dasharray="1,5" points="8,-32.8 8,-230.8 1603,-230.8 1603,-32.8 8,-32.8"/>
</g>
<g id="clust12" class="cluster">
<title>cluster_AppModule_imports</title>
<polygon fill="none" stroke="black" points="1451,-40.8 1451,-92.8 1595,-92.8 1595,-40.8 1451,-40.8"/>
</g>
<g id="clust14" class="cluster">
<title>cluster_AppModule_bootstrap</title>
<polygon fill="none" stroke="black" points="775,-170.8 775,-222.8 899,-222.8 899,-170.8 775,-170.8"/>
</g>
<g id="clust2" class="cluster">
<title>cluster_AppModule_declarations</title>
<polygon fill="none" stroke="black" points="16,-40.8 16,-92.8 1443,-92.8 1443,-40.8 16,-40.8"/>
</g>
<!-- AddTutorialComponent -->
<g id="node1" class="node">
<title>AddTutorialComponent</title>
<polygon fill="#ffffb3" stroke="black" points="1435.04,-84.8 1284.96,-84.8 1284.96,-48.8 1435.04,-48.8 1435.04,-84.8"/>
<text text-anchor="middle" x="1360" y="-62.6" font-family="Times,serif" font-size="14.00">AddTutorialComponent</text>
</g>
<!-- AppModule -->
<g id="node10" class="node">
<title>AppModule</title>
<polygon fill="#8dd3c7" stroke="black" points="878.66,-149.8 875.66,-153.8 854.66,-153.8 851.66,-149.8 795.34,-149.8 795.34,-113.8 878.66,-113.8 878.66,-149.8"/>
<text text-anchor="middle" x="837" y="-127.6" font-family="Times,serif" font-size="14.00">AppModule</text>
</g>
<!-- AddTutorialComponent&#45;&gt;AppModule -->
<g id="edge1" class="edge">
<title>AddTutorialComponent&#45;&gt;AppModule</title>
<path fill="none" stroke="black" d="M1360,-84.93C1360,-105.37 1360,-135.8 1360,-135.8 1360,-135.8 888.92,-135.8 888.92,-135.8"/>
<polygon fill="black" stroke="black" points="888.92,-132.3 878.92,-135.8 888.92,-139.3 888.92,-132.3"/>
</g>
<!-- AddUserComponent -->
<g id="node2" class="node">
<title>AddUserComponent</title>
<polygon fill="#ffffb3" stroke="black" points="1266.88,-84.8 1135.12,-84.8 1135.12,-48.8 1266.88,-48.8 1266.88,-84.8"/>
<text text-anchor="middle" x="1201" y="-62.6" font-family="Times,serif" font-size="14.00">AddUserComponent</text>
</g>
<!-- AddUserComponent&#45;&gt;AppModule -->
<g id="edge2" class="edge">
<title>AddUserComponent&#45;&gt;AppModule</title>
<path fill="none" stroke="black" d="M1201,-85.07C1201,-103.36 1201,-128.8 1201,-128.8 1201,-128.8 888.76,-128.8 888.76,-128.8"/>
<polygon fill="black" stroke="black" points="888.76,-125.3 878.76,-128.8 888.76,-132.3 888.76,-125.3"/>
</g>
<!-- AppComponent -->
<g id="node3" class="node">
<title>AppComponent</title>
<polygon fill="#ffffb3" stroke="black" points="1116.94,-84.8 1011.06,-84.8 1011.06,-48.8 1116.94,-48.8 1116.94,-84.8"/>
<text text-anchor="middle" x="1064" y="-62.6" font-family="Times,serif" font-size="14.00">AppComponent</text>
</g>
<!-- AppComponent&#45;&gt;AppModule -->
<g id="edge3" class="edge">
<title>AppComponent&#45;&gt;AppModule</title>
<path fill="none" stroke="black" d="M1064,-84.81C1064,-100.85 1064,-121.8 1064,-121.8 1064,-121.8 888.9,-121.8 888.9,-121.8"/>
<polygon fill="black" stroke="black" points="888.9,-118.3 878.9,-121.8 888.9,-125.3 888.9,-118.3"/>
</g>
<!-- ContactFormComponent -->
<g id="node4" class="node">
<title>ContactFormComponent</title>
<polygon fill="#ffffb3" stroke="black" points="993.71,-84.8 838.29,-84.8 838.29,-48.8 993.71,-48.8 993.71,-84.8"/>
<text text-anchor="middle" x="916" y="-62.6" font-family="Times,serif" font-size="14.00">ContactFormComponent</text>
</g>
<!-- ContactFormComponent&#45;&gt;AppModule -->
<g id="edge4" class="edge">
<title>ContactFormComponent&#45;&gt;AppModule</title>
<path fill="none" stroke="black" d="M858.61,-84.91C858.61,-84.91 858.61,-103.79 858.61,-103.79"/>
<polygon fill="black" stroke="black" points="855.11,-103.79 858.61,-113.79 862.11,-103.79 855.11,-103.79"/>
</g>
<!-- DoTestComponent -->
<g id="node5" class="node">
<title>DoTestComponent</title>
<polygon fill="#ffffb3" stroke="black" points="820.05,-84.8 697.95,-84.8 697.95,-48.8 820.05,-48.8 820.05,-84.8"/>
<text text-anchor="middle" x="759" y="-62.6" font-family="Times,serif" font-size="14.00">DoTestComponent</text>
</g>
<!-- DoTestComponent&#45;&gt;AppModule -->
<g id="edge5" class="edge">
<title>DoTestComponent&#45;&gt;AppModule</title>
<path fill="none" stroke="black" d="M807.72,-84.91C807.72,-84.91 807.72,-103.79 807.72,-103.79"/>
<polygon fill="black" stroke="black" points="804.22,-103.79 807.72,-113.79 811.22,-103.79 804.22,-103.79"/>
</g>
<!-- TutorialDetailsComponent -->
<g id="node6" class="node">
<title>TutorialDetailsComponent</title>
<polygon fill="#ffffb3" stroke="black" points="680.08,-84.8 513.92,-84.8 513.92,-48.8 680.08,-48.8 680.08,-84.8"/>
<text text-anchor="middle" x="597" y="-62.6" font-family="Times,serif" font-size="14.00">TutorialDetailsComponent</text>
</g>
<!-- TutorialDetailsComponent&#45;&gt;AppModule -->
<g id="edge6" class="edge">
<title>TutorialDetailsComponent&#45;&gt;AppModule</title>
<path fill="none" stroke="black" d="M597,-84.81C597,-100.85 597,-121.8 597,-121.8 597,-121.8 785.2,-121.8 785.2,-121.8"/>
<polygon fill="black" stroke="black" points="785.2,-125.3 795.2,-121.8 785.2,-118.3 785.2,-125.3"/>
</g>
<!-- TutorialsListComponent -->
<g id="node7" class="node">
<title>TutorialsListComponent</title>
<polygon fill="#ffffb3" stroke="black" points="495.66,-84.8 342.34,-84.8 342.34,-48.8 495.66,-48.8 495.66,-84.8"/>
<text text-anchor="middle" x="419" y="-62.6" font-family="Times,serif" font-size="14.00">TutorialsListComponent</text>
</g>
<!-- TutorialsListComponent&#45;&gt;AppModule -->
<g id="edge7" class="edge">
<title>TutorialsListComponent&#45;&gt;AppModule</title>
<path fill="none" stroke="black" d="M419,-85.07C419,-103.36 419,-128.8 419,-128.8 419,-128.8 785.01,-128.8 785.01,-128.8"/>
<polygon fill="black" stroke="black" points="785.01,-132.3 795.01,-128.8 785.01,-125.3 785.01,-132.3"/>
</g>
<!-- UserDetailsComponent -->
<g id="node8" class="node">
<title>UserDetailsComponent</title>
<polygon fill="#ffffb3" stroke="black" points="323.92,-84.8 176.08,-84.8 176.08,-48.8 323.92,-48.8 323.92,-84.8"/>
<text text-anchor="middle" x="250" y="-62.6" font-family="Times,serif" font-size="14.00">UserDetailsComponent</text>
</g>
<!-- UserDetailsComponent&#45;&gt;AppModule -->
<g id="edge8" class="edge">
<title>UserDetailsComponent&#45;&gt;AppModule</title>
<path fill="none" stroke="black" d="M250,-84.93C250,-105.37 250,-135.8 250,-135.8 250,-135.8 785.25,-135.8 785.25,-135.8"/>
<polygon fill="black" stroke="black" points="785.26,-139.3 795.25,-135.8 785.25,-132.3 785.26,-139.3"/>
</g>
<!-- UsersListComponent -->
<g id="node9" class="node">
<title>UsersListComponent</title>
<polygon fill="#ffffb3" stroke="black" points="158.49,-84.8 23.51,-84.8 23.51,-48.8 158.49,-48.8 158.49,-84.8"/>
<text text-anchor="middle" x="91" y="-62.6" font-family="Times,serif" font-size="14.00">UsersListComponent</text>
</g>
<!-- UsersListComponent&#45;&gt;AppModule -->
<g id="edge9" class="edge">
<title>UsersListComponent&#45;&gt;AppModule</title>
<path fill="none" stroke="black" d="M91,-84.81C91,-107.29 91,-142.8 91,-142.8 91,-142.8 785.29,-142.8 785.29,-142.8"/>
<polygon fill="black" stroke="black" points="785.29,-146.3 795.29,-142.8 785.29,-139.3 785.29,-146.3"/>
</g>
<!-- AppComponent  -->
<g id="node12" class="node">
<title>AppComponent </title>
<polygon fill="#80b1d3" stroke="black" points="891.44,-214.8 782.56,-214.8 782.56,-178.8 891.44,-178.8 891.44,-214.8"/>
<text text-anchor="middle" x="837" y="-192.6" font-family="Times,serif" font-size="14.00">AppComponent </text>
</g>
<!-- AppModule&#45;&gt;AppComponent  -->
<g id="edge11" class="edge">
<title>AppModule&#45;&gt;AppComponent </title>
<path fill="none" stroke="black" stroke-dasharray="1,5" d="M837,-149.91C837,-149.91 837,-168.79 837,-168.79"/>
<polygon fill="black" stroke="black" points="833.5,-168.79 837,-178.79 840.5,-168.79 833.5,-168.79"/>
</g>
<!-- AppRoutingModule -->
<g id="node11" class="node">
<title>AppRoutingModule</title>
<polygon fill="#8dd3c7" stroke="black" points="1587.28,-84.8 1584.28,-88.8 1563.28,-88.8 1560.28,-84.8 1458.72,-84.8 1458.72,-48.8 1587.28,-48.8 1587.28,-84.8"/>
<text text-anchor="middle" x="1523" y="-62.6" font-family="Times,serif" font-size="14.00">AppRoutingModule</text>
</g>
<!-- AppRoutingModule&#45;&gt;AppModule -->
<g id="edge10" class="edge">
<title>AppRoutingModule&#45;&gt;AppModule</title>
<path fill="none" stroke="black" d="M1523,-84.81C1523,-107.29 1523,-142.8 1523,-142.8 1523,-142.8 888.88,-142.8 888.88,-142.8"/>
<polygon fill="black" stroke="black" points="888.88,-139.3 878.88,-142.8 888.88,-146.3 888.88,-139.3"/>
</g>
</g>
</svg>
