<?xml version="1.0" encoding="UTF-8" standalone="no"?>
<!DOCTYPE svg PUBLIC "-//W3C//DTD SVG 1.1//EN"
 "http://www.w3.org/Graphics/SVG/1.1/DTD/svg11.dtd">
<!-- Generated by graphviz version 3.0.0 (20220226.1711)
 -->
<!-- Title: dependencies Pages: 1 -->
<svg width="1619pt" height="247pt"
 viewBox="0.00 0.00 1619.00 246.80" xmlns="http://www.w3.org/2000/svg" xmlns:xlink="http://www.w3.org/1999/xlink">
<g id="graph0" class="graph" transform="scale(1 1) rotate(0) translate(4 242.8)">
<title>dependencies</title>
<polygon fill="white" stroke="transparent" points="-4,4 -4,-242.8 1615,-242.8 1615,4 -4,4"/>
<text text-anchor="middle" x="805.5" y="-8.2" font-family="sans-serif" font-size="14.00">dependencies</text>
<g id="clust1" class="cluster">
<title>cluster_AppModule</title>
<polygon fill="none" stroke="black" stroke-dasharray="1,5" points="8,-32.8 8,-230.8 1603,-230.8 1603,-32.8 8,-32.8"/>
</g>
<g id="clust2" class="cluster">
<title>cluster_AppModule_declarations</title>
<polygon fill="none" stroke="black" points="168,-40.8 168,-92.8 1595,-92.8 1595,-40.8 168,-40.8"/>
</g>
<g id="clust12" class="cluster">
<title>cluster_AppModule_imports</title>
<polygon fill="none" stroke="black" points="16,-40.8 16,-92.8 160,-92.8 160,-40.8 16,-40.8"/>
</g>
<g id="clust14" class="cluster">
<title>cluster_AppModule_bootstrap</title>
<polygon fill="none" stroke="black" points="768,-170.8 768,-222.8 892,-222.8 892,-170.8 768,-170.8"/>
</g>
<!-- AddTutorialComponent -->
<g id="node1" class="node">
<title>AddTutorialComponent</title>
<polygon fill="#ffffb3" stroke="black" points="1587.04,-84.8 1436.96,-84.8 1436.96,-48.8 1587.04,-48.8 1587.04,-84.8"/>
<text text-anchor="middle" x="1512" y="-62.6" font-family="Times,serif" font-size="14.00">AddTutorialComponent</text>
</g>
<!-- AppModule -->
<g id="node10" class="node">
<title>AppModule</title>
<polygon fill="#8dd3c7" stroke="black" points="871.66,-149.8 868.66,-153.8 847.66,-153.8 844.66,-149.8 788.34,-149.8 788.34,-113.8 871.66,-113.8 871.66,-149.8"/>
<text text-anchor="middle" x="830" y="-127.6" font-family="Times,serif" font-size="14.00">AppModule</text>
</g>
<!-- AddTutorialComponent&#45;&gt;AppModule -->
<g id="edge1" class="edge">
<title>AddTutorialComponent&#45;&gt;AppModule</title>
<path fill="none" stroke="black" d="M1512,-84.81C1512,-107.29 1512,-142.8 1512,-142.8 1512,-142.8 881.89,-142.8 881.89,-142.8"/>
<polygon fill="black" stroke="black" points="881.89,-139.3 871.89,-142.8 881.89,-146.3 881.89,-139.3"/>
</g>
<!-- AddUserComponent -->
<g id="node2" class="node">
<title>AddUserComponent</title>
<polygon fill="#ffffb3" stroke="black" points="1418.88,-84.8 1287.12,-84.8 1287.12,-48.8 1418.88,-48.8 1418.88,-84.8"/>
<text text-anchor="middle" x="1353" y="-62.6" font-family="Times,serif" font-size="14.00">AddUserComponent</text>
</g>
<!-- AddUserComponent&#45;&gt;AppModule -->
<g id="edge2" class="edge">
<title>AddUserComponent&#45;&gt;AppModule</title>
<path fill="none" stroke="black" d="M1353,-84.93C1353,-105.37 1353,-135.8 1353,-135.8 1353,-135.8 881.92,-135.8 881.92,-135.8"/>
<polygon fill="black" stroke="black" points="881.92,-132.3 871.92,-135.8 881.92,-139.3 881.92,-132.3"/>
</g>
<!-- AppComponent -->
<g id="node3" class="node">
<title>AppComponent</title>
<polygon fill="#ffffb3" stroke="black" points="1268.94,-84.8 1163.06,-84.8 1163.06,-48.8 1268.94,-48.8 1268.94,-84.8"/>
<text text-anchor="middle" x="1216" y="-62.6" font-family="Times,serif" font-size="14.00">AppComponent</text>
</g>
<!-- AppComponent&#45;&gt;AppModule -->
<g id="edge3" class="edge">
<title>AppComponent&#45;&gt;AppModule</title>
<path fill="none" stroke="black" d="M1216,-85.07C1216,-103.36 1216,-128.8 1216,-128.8 1216,-128.8 881.68,-128.8 881.68,-128.8"/>
<polygon fill="black" stroke="black" points="881.68,-125.3 871.68,-128.8 881.68,-132.3 881.68,-125.3"/>
</g>
<!-- ContactFormComponent -->
<g id="node4" class="node">
<title>ContactFormComponent</title>
<polygon fill="#ffffb3" stroke="black" points="1145.71,-84.8 990.29,-84.8 990.29,-48.8 1145.71,-48.8 1145.71,-84.8"/>
<text text-anchor="middle" x="1068" y="-62.6" font-family="Times,serif" font-size="14.00">ContactFormComponent</text>
</g>
<!-- ContactFormComponent&#45;&gt;AppModule -->
<g id="edge4" class="edge">
<title>ContactFormComponent&#45;&gt;AppModule</title>
<path fill="none" stroke="black" d="M1068,-84.81C1068,-100.85 1068,-121.8 1068,-121.8 1068,-121.8 881.73,-121.8 881.73,-121.8"/>
<polygon fill="black" stroke="black" points="881.73,-118.3 871.73,-121.8 881.73,-125.3 881.73,-118.3"/>
</g>
<!-- DoTestComponent -->
<g id="node5" class="node">
<title>DoTestComponent</title>
<polygon fill="#ffffb3" stroke="black" points="972.05,-84.8 849.95,-84.8 849.95,-48.8 972.05,-48.8 972.05,-84.8"/>
<text text-anchor="middle" x="911" y="-62.6" font-family="Times,serif" font-size="14.00">DoTestComponent</text>
</g>
<!-- DoTestComponent&#45;&gt;AppModule -->
<g id="edge5" class="edge">
<title>DoTestComponent&#45;&gt;AppModule</title>
<path fill="none" stroke="black" d="M860.78,-84.91C860.78,-84.91 860.78,-103.79 860.78,-103.79"/>
<polygon fill="black" stroke="black" points="857.28,-103.79 860.78,-113.79 864.28,-103.79 857.28,-103.79"/>
</g>
<!-- TutorialDetailsComponent -->
<g id="node6" class="node">
<title>TutorialDetailsComponent</title>
<polygon fill="#ffffb3" stroke="black" points="832.08,-84.8 665.92,-84.8 665.92,-48.8 832.08,-48.8 832.08,-84.8"/>
<text text-anchor="middle" x="749" y="-62.6" font-family="Times,serif" font-size="14.00">TutorialDetailsComponent</text>
</g>
<!-- TutorialDetailsComponent&#45;&gt;AppModule -->
<g id="edge6" class="edge">
<title>TutorialDetailsComponent&#45;&gt;AppModule</title>
<path fill="none" stroke="black" d="M810.11,-84.91C810.11,-84.91 810.11,-103.79 810.11,-103.79"/>
<polygon fill="black" stroke="black" points="806.61,-103.79 810.11,-113.79 813.61,-103.79 806.61,-103.79"/>
</g>
<!-- TutorialsListComponent -->
<g id="node7" class="node">
<title>TutorialsListComponent</title>
<polygon fill="#ffffb3" stroke="black" points="647.66,-84.8 494.34,-84.8 494.34,-48.8 647.66,-48.8 647.66,-84.8"/>
<text text-anchor="middle" x="571" y="-62.6" font-family="Times,serif" font-size="14.00">TutorialsListComponent</text>
</g>
<!-- TutorialsListComponent&#45;&gt;AppModule -->
<g id="edge7" class="edge">
<title>TutorialsListComponent&#45;&gt;AppModule</title>
<path fill="none" stroke="black" d="M571,-84.81C571,-100.85 571,-121.8 571,-121.8 571,-121.8 778.1,-121.8 778.1,-121.8"/>
<polygon fill="black" stroke="black" points="778.1,-125.3 788.1,-121.8 778.1,-118.3 778.1,-125.3"/>
</g>
<!-- UserDetailsComponent -->
<g id="node8" class="node">
<title>UserDetailsComponent</title>
<polygon fill="#ffffb3" stroke="black" points="475.92,-84.8 328.08,-84.8 328.08,-48.8 475.92,-48.8 475.92,-84.8"/>
<text text-anchor="middle" x="402" y="-62.6" font-family="Times,serif" font-size="14.00">UserDetailsComponent</text>
</g>
<!-- UserDetailsComponent&#45;&gt;AppModule -->
<g id="edge8" class="edge">
<title>UserDetailsComponent&#45;&gt;AppModule</title>
<path fill="none" stroke="black" d="M402,-85.07C402,-103.36 402,-128.8 402,-128.8 402,-128.8 778.18,-128.8 778.18,-128.8"/>
<polygon fill="black" stroke="black" points="778.18,-132.3 788.18,-128.8 778.18,-125.3 778.18,-132.3"/>
</g>
<!-- UsersListComponent -->
<g id="node9" class="node">
<title>UsersListComponent</title>
<polygon fill="#ffffb3" stroke="black" points="310.49,-84.8 175.51,-84.8 175.51,-48.8 310.49,-48.8 310.49,-84.8"/>
<text text-anchor="middle" x="243" y="-62.6" font-family="Times,serif" font-size="14.00">UsersListComponent</text>
</g>
<!-- UsersListComponent&#45;&gt;AppModule -->
<g id="edge9" class="edge">
<title>UsersListComponent&#45;&gt;AppModule</title>
<path fill="none" stroke="black" d="M243,-84.93C243,-105.37 243,-135.8 243,-135.8 243,-135.8 778.25,-135.8 778.25,-135.8"/>
<polygon fill="black" stroke="black" points="778.26,-139.3 788.25,-135.8 778.25,-132.3 778.26,-139.3"/>
</g>
<!-- AppComponent  -->
<g id="node12" class="node">
<title>AppComponent </title>
<polygon fill="#80b1d3" stroke="black" points="884.44,-214.8 775.56,-214.8 775.56,-178.8 884.44,-178.8 884.44,-214.8"/>
<text text-anchor="middle" x="830" y="-192.6" font-family="Times,serif" font-size="14.00">AppComponent </text>
</g>
<!-- AppModule&#45;&gt;AppComponent  -->
<g id="edge11" class="edge">
<title>AppModule&#45;&gt;AppComponent </title>
<path fill="none" stroke="black" stroke-dasharray="1,5" d="M830,-149.91C830,-149.91 830,-168.79 830,-168.79"/>
<polygon fill="black" stroke="black" points="826.5,-168.79 830,-178.79 833.5,-168.79 826.5,-168.79"/>
</g>
<!-- AppRoutingModule -->
<g id="node11" class="node">
<title>AppRoutingModule</title>
<polygon fill="#8dd3c7" stroke="black" points="152.28,-84.8 149.28,-88.8 128.28,-88.8 125.28,-84.8 23.72,-84.8 23.72,-48.8 152.28,-48.8 152.28,-84.8"/>
<text text-anchor="middle" x="88" y="-62.6" font-family="Times,serif" font-size="14.00">AppRoutingModule</text>
</g>
<!-- AppRoutingModule&#45;&gt;AppModule -->
<g id="edge10" class="edge">
<title>AppRoutingModule&#45;&gt;AppModule</title>
<path fill="none" stroke="black" d="M88,-84.81C88,-107.29 88,-142.8 88,-142.8 88,-142.8 778.25,-142.8 778.25,-142.8"/>
<polygon fill="black" stroke="black" points="778.25,-146.3 788.25,-142.8 778.25,-139.3 778.25,-146.3"/>
</g>
</g>
</svg>
