<?xml version="1.0" encoding="UTF-8" standalone="no"?>
<!DOCTYPE svg PUBLIC "-//W3C//DTD SVG 1.1//EN"
 "http://www.w3.org/Graphics/SVG/1.1/DTD/svg11.dtd">
<!-- Generated by graphviz version 3.0.0 (20220226.1711)
 -->
<!-- Title: dependencies Pages: 1 -->
<svg width="2224pt" height="247pt"
 viewBox="0.00 0.00 2224.00 246.80" xmlns="http://www.w3.org/2000/svg" xmlns:xlink="http://www.w3.org/1999/xlink">
<g id="graph0" class="graph" transform="scale(1 1) rotate(0) translate(4 242.8)">
<title>dependencies</title>
<polygon fill="white" stroke="transparent" points="-4,4 -4,-242.8 2220,-242.8 2220,4 -4,4"/>
<text text-anchor="middle" x="1108" y="-8.2" font-family="sans-serif" font-size="14.00">dependencies</text>
<g id="clust1" class="cluster">
<title>cluster_AppModule</title>
<polygon fill="none" stroke="black" stroke-dasharray="1,5" points="8,-32.8 8,-230.8 2208,-230.8 2208,-32.8 8,-32.8"/>
</g>
<g id="clust2" class="cluster">
<title>cluster_AppModule_declarations</title>
<polygon fill="none" stroke="black" points="168,-40.8 168,-92.8 2200,-92.8 2200,-40.8 168,-40.8"/>
</g>
<g id="clust16" class="cluster">
<title>cluster_AppModule_imports</title>
<polygon fill="none" stroke="black" points="16,-40.8 16,-92.8 160,-92.8 160,-40.8 16,-40.8"/>
</g>
<g id="clust18" class="cluster">
<title>cluster_AppModule_bootstrap</title>
<polygon fill="none" stroke="black" points="1048,-170.8 1048,-222.8 1172,-222.8 1172,-170.8 1048,-170.8"/>
</g>
<!-- AddTutorialComponent -->
<g id="node1" class="node">
<title>AddTutorialComponent</title>
<polygon fill="#ffffb3" stroke="black" points="2192.04,-84.8 2041.96,-84.8 2041.96,-48.8 2192.04,-48.8 2192.04,-84.8"/>
<text text-anchor="middle" x="2117" y="-62.6" font-family="Times,serif" font-size="14.00">AddTutorialComponent</text>
</g>
<!-- AppModule -->
<g id="node14" class="node">
<title>AppModule</title>
<polygon fill="#8dd3c7" stroke="black" points="1151.66,-149.8 1148.66,-153.8 1127.66,-153.8 1124.66,-149.8 1068.34,-149.8 1068.34,-113.8 1151.66,-113.8 1151.66,-149.8"/>
<text text-anchor="middle" x="1110" y="-127.6" font-family="Times,serif" font-size="14.00">AppModule</text>
</g>
<!-- AddTutorialComponent&#45;&gt;AppModule -->
<g id="edge1" class="edge">
<title>AddTutorialComponent&#45;&gt;AppModule</title>
<path fill="none" stroke="black" d="M2117,-84.89C2117,-107.93 2117,-144.8 2117,-144.8 2117,-144.8 1161.67,-144.8 1161.67,-144.8"/>
<polygon fill="black" stroke="black" points="1161.67,-141.3 1151.67,-144.8 1161.67,-148.3 1161.67,-141.3"/>
</g>
<!-- AddUserComponent -->
<g id="node2" class="node">
<title>AddUserComponent</title>
<polygon fill="#ffffb3" stroke="black" points="2023.88,-84.8 1892.12,-84.8 1892.12,-48.8 2023.88,-48.8 2023.88,-84.8"/>
<text text-anchor="middle" x="1958" y="-62.6" font-family="Times,serif" font-size="14.00">AddUserComponent</text>
</g>
<!-- AddUserComponent&#45;&gt;AppModule -->
<g id="edge2" class="edge">
<title>AddUserComponent&#45;&gt;AppModule</title>
<path fill="none" stroke="black" d="M1958,-84.84C1958,-106.46 1958,-139.8 1958,-139.8 1958,-139.8 1161.76,-139.8 1161.76,-139.8"/>
<polygon fill="black" stroke="black" points="1161.76,-136.3 1151.76,-139.8 1161.76,-143.3 1161.76,-136.3"/>
</g>
<!-- AdministrationComponent -->
<g id="node3" class="node">
<title>AdministrationComponent</title>
<polygon fill="#ffffb3" stroke="black" points="1874.1,-84.8 1707.9,-84.8 1707.9,-48.8 1874.1,-48.8 1874.1,-84.8"/>
<text text-anchor="middle" x="1791" y="-62.6" font-family="Times,serif" font-size="14.00">AdministrationComponent</text>
</g>
<!-- AdministrationComponent&#45;&gt;AppModule -->
<g id="edge3" class="edge">
<title>AdministrationComponent&#45;&gt;AppModule</title>
<path fill="none" stroke="black" d="M1791,-85.02C1791,-105.17 1791,-134.8 1791,-134.8 1791,-134.8 1161.83,-134.8 1161.83,-134.8"/>
<polygon fill="black" stroke="black" points="1161.83,-131.3 1151.83,-134.8 1161.83,-138.3 1161.83,-131.3"/>
</g>
<!-- AppComponent -->
<g id="node4" class="node">
<title>AppComponent</title>
<polygon fill="#ffffb3" stroke="black" points="1689.94,-84.8 1584.06,-84.8 1584.06,-48.8 1689.94,-48.8 1689.94,-84.8"/>
<text text-anchor="middle" x="1637" y="-62.6" font-family="Times,serif" font-size="14.00">AppComponent</text>
</g>
<!-- AppComponent&#45;&gt;AppModule -->
<g id="edge4" class="edge">
<title>AppComponent&#45;&gt;AppModule</title>
<path fill="none" stroke="black" d="M1637,-85.02C1637,-103.63 1637,-129.8 1637,-129.8 1637,-129.8 1161.79,-129.8 1161.79,-129.8"/>
<polygon fill="black" stroke="black" points="1161.79,-126.3 1151.79,-129.8 1161.79,-133.3 1161.79,-126.3"/>
</g>
<!-- ContactFormComponent -->
<g id="node5" class="node">
<title>ContactFormComponent</title>
<polygon fill="#ffffb3" stroke="black" points="1566.71,-84.8 1411.29,-84.8 1411.29,-48.8 1566.71,-48.8 1566.71,-84.8"/>
<text text-anchor="middle" x="1489" y="-62.6" font-family="Times,serif" font-size="14.00">ContactFormComponent</text>
</g>
<!-- ContactFormComponent&#45;&gt;AppModule -->
<g id="edge5" class="edge">
<title>ContactFormComponent&#45;&gt;AppModule</title>
<path fill="none" stroke="black" d="M1489,-84.83C1489,-101.86 1489,-124.8 1489,-124.8 1489,-124.8 1162.01,-124.8 1162.01,-124.8"/>
<polygon fill="black" stroke="black" points="1162.01,-121.3 1152.01,-124.8 1162.01,-128.3 1162.01,-121.3"/>
</g>
<!-- DoTestComponent -->
<g id="node6" class="node">
<title>DoTestComponent</title>
<polygon fill="#ffffb3" stroke="black" points="1393.05,-84.8 1270.95,-84.8 1270.95,-48.8 1393.05,-48.8 1393.05,-84.8"/>
<text text-anchor="middle" x="1332" y="-62.6" font-family="Times,serif" font-size="14.00">DoTestComponent</text>
</g>
<!-- DoTestComponent&#45;&gt;AppModule -->
<g id="edge6" class="edge">
<title>DoTestComponent&#45;&gt;AppModule</title>
<path fill="none" stroke="black" d="M1332,-85.04C1332,-100.37 1332,-119.8 1332,-119.8 1332,-119.8 1161.76,-119.8 1161.76,-119.8"/>
<polygon fill="black" stroke="black" points="1161.76,-116.3 1151.76,-119.8 1161.76,-123.3 1161.76,-116.3"/>
</g>
<!-- ExamenesComponent -->
<g id="node7" class="node">
<title>ExamenesComponent</title>
<polygon fill="#ffffb3" stroke="black" points="1252.36,-84.8 1113.64,-84.8 1113.64,-48.8 1252.36,-48.8 1252.36,-84.8"/>
<text text-anchor="middle" x="1183" y="-62.6" font-family="Times,serif" font-size="14.00">ExamenesComponent</text>
</g>
<!-- ExamenesComponent&#45;&gt;AppModule -->
<g id="edge7" class="edge">
<title>ExamenesComponent&#45;&gt;AppModule</title>
<path fill="none" stroke="black" d="M1132.7,-84.91C1132.7,-84.91 1132.7,-103.79 1132.7,-103.79"/>
<polygon fill="black" stroke="black" points="1129.2,-103.79 1132.7,-113.79 1136.2,-103.79 1129.2,-103.79"/>
</g>
<!-- LoginComponent -->
<g id="node8" class="node">
<title>LoginComponent</title>
<polygon fill="#ffffb3" stroke="black" points="1095.27,-84.8 980.73,-84.8 980.73,-48.8 1095.27,-48.8 1095.27,-84.8"/>
<text text-anchor="middle" x="1038" y="-62.6" font-family="Times,serif" font-size="14.00">LoginComponent</text>
</g>
<!-- LoginComponent&#45;&gt;AppModule -->
<g id="edge8" class="edge">
<title>LoginComponent&#45;&gt;AppModule</title>
<path fill="none" stroke="black" d="M1081.78,-84.91C1081.78,-84.91 1081.78,-103.79 1081.78,-103.79"/>
<polygon fill="black" stroke="black" points="1078.28,-103.79 1081.78,-113.79 1085.28,-103.79 1078.28,-103.79"/>
</g>
<!-- PerfilComponent -->
<g id="node9" class="node">
<title>PerfilComponent</title>
<polygon fill="#ffffb3" stroke="black" points="962.44,-84.8 849.56,-84.8 849.56,-48.8 962.44,-48.8 962.44,-84.8"/>
<text text-anchor="middle" x="906" y="-62.6" font-family="Times,serif" font-size="14.00">PerfilComponent</text>
</g>
<!-- PerfilComponent&#45;&gt;AppModule -->
<g id="edge9" class="edge">
<title>PerfilComponent&#45;&gt;AppModule</title>
<path fill="none" stroke="black" d="M906,-85.04C906,-100.37 906,-119.8 906,-119.8 906,-119.8 1058.23,-119.8 1058.23,-119.8"/>
<polygon fill="black" stroke="black" points="1058.23,-123.3 1068.23,-119.8 1058.23,-116.3 1058.23,-123.3"/>
</g>
<!-- TutorialDetailsComponent -->
<g id="node10" class="node">
<title>TutorialDetailsComponent</title>
<polygon fill="#ffffb3" stroke="black" points="832.08,-84.8 665.92,-84.8 665.92,-48.8 832.08,-48.8 832.08,-84.8"/>
<text text-anchor="middle" x="749" y="-62.6" font-family="Times,serif" font-size="14.00">TutorialDetailsComponent</text>
</g>
<!-- TutorialDetailsComponent&#45;&gt;AppModule -->
<g id="edge10" class="edge">
<title>TutorialDetailsComponent&#45;&gt;AppModule</title>
<path fill="none" stroke="black" d="M749,-84.83C749,-101.86 749,-124.8 749,-124.8 749,-124.8 1058.24,-124.8 1058.24,-124.8"/>
<polygon fill="black" stroke="black" points="1058.24,-128.3 1068.24,-124.8 1058.24,-121.3 1058.24,-128.3"/>
</g>
<!-- TutorialsListComponent -->
<g id="node11" class="node">
<title>TutorialsListComponent</title>
<polygon fill="#ffffb3" stroke="black" points="647.66,-84.8 494.34,-84.8 494.34,-48.8 647.66,-48.8 647.66,-84.8"/>
<text text-anchor="middle" x="571" y="-62.6" font-family="Times,serif" font-size="14.00">TutorialsListComponent</text>
</g>
<!-- TutorialsListComponent&#45;&gt;AppModule -->
<g id="edge11" class="edge">
<title>TutorialsListComponent&#45;&gt;AppModule</title>
<path fill="none" stroke="black" d="M571,-85.02C571,-103.63 571,-129.8 571,-129.8 571,-129.8 1058.15,-129.8 1058.15,-129.8"/>
<polygon fill="black" stroke="black" points="1058.15,-133.3 1068.15,-129.8 1058.15,-126.3 1058.15,-133.3"/>
</g>
<!-- UserDetailsComponent -->
<g id="node12" class="node">
<title>UserDetailsComponent</title>
<polygon fill="#ffffb3" stroke="black" points="475.92,-84.8 328.08,-84.8 328.08,-48.8 475.92,-48.8 475.92,-84.8"/>
<text text-anchor="middle" x="402" y="-62.6" font-family="Times,serif" font-size="14.00">UserDetailsComponent</text>
</g>
<!-- UserDetailsComponent&#45;&gt;AppModule -->
<g id="edge12" class="edge">
<title>UserDetailsComponent&#45;&gt;AppModule</title>
<path fill="none" stroke="black" d="M402,-85.02C402,-105.17 402,-134.8 402,-134.8 402,-134.8 1058.09,-134.8 1058.09,-134.8"/>
<polygon fill="black" stroke="black" points="1058.09,-138.3 1068.09,-134.8 1058.09,-131.3 1058.09,-138.3"/>
</g>
<!-- UsersListComponent -->
<g id="node13" class="node">
<title>UsersListComponent</title>
<polygon fill="#ffffb3" stroke="black" points="310.49,-84.8 175.51,-84.8 175.51,-48.8 310.49,-48.8 310.49,-84.8"/>
<text text-anchor="middle" x="243" y="-62.6" font-family="Times,serif" font-size="14.00">UsersListComponent</text>
</g>
<!-- UsersListComponent&#45;&gt;AppModule -->
<g id="edge13" class="edge">
<title>UsersListComponent&#45;&gt;AppModule</title>
<path fill="none" stroke="black" d="M243,-84.84C243,-106.46 243,-139.8 243,-139.8 243,-139.8 1058.18,-139.8 1058.18,-139.8"/>
<polygon fill="black" stroke="black" points="1058.18,-143.3 1068.18,-139.8 1058.18,-136.3 1058.18,-143.3"/>
</g>
<!-- AppComponent  -->
<g id="node16" class="node">
<title>AppComponent </title>
<polygon fill="#80b1d3" stroke="black" points="1164.44,-214.8 1055.56,-214.8 1055.56,-178.8 1164.44,-178.8 1164.44,-214.8"/>
<text text-anchor="middle" x="1110" y="-192.6" font-family="Times,serif" font-size="14.00">AppComponent </text>
</g>
<!-- AppModule&#45;&gt;AppComponent  -->
<g id="edge15" class="edge">
<title>AppModule&#45;&gt;AppComponent </title>
<path fill="none" stroke="black" stroke-dasharray="1,5" d="M1110,-149.91C1110,-149.91 1110,-168.79 1110,-168.79"/>
<polygon fill="black" stroke="black" points="1106.5,-168.79 1110,-178.79 1113.5,-168.79 1106.5,-168.79"/>
</g>
<!-- AppRoutingModule -->
<g id="node15" class="node">
<title>AppRoutingModule</title>
<polygon fill="#8dd3c7" stroke="black" points="152.28,-84.8 149.28,-88.8 128.28,-88.8 125.28,-84.8 23.72,-84.8 23.72,-48.8 152.28,-48.8 152.28,-84.8"/>
<text text-anchor="middle" x="88" y="-62.6" font-family="Times,serif" font-size="14.00">AppRoutingModule</text>
</g>
<!-- AppRoutingModule&#45;&gt;AppModule -->
<g id="edge14" class="edge">
<title>AppRoutingModule&#45;&gt;AppModule</title>
<path fill="none" stroke="black" d="M88,-84.89C88,-107.93 88,-144.8 88,-144.8 88,-144.8 1058.03,-144.8 1058.03,-144.8"/>
<polygon fill="black" stroke="black" points="1058.03,-148.3 1068.03,-144.8 1058.03,-141.3 1058.03,-148.3"/>
</g>
</g>
</svg>
